<svg width="500" height="500" viewBox="0 0 500 500" fill="none" xmlns="http://www.w3.org/2000/svg">
<rect width="500" height="500" rx="150" fill="#0E0E0E"/>
<path d="M295.659 277.22H285.948L282.506 273.901C294.553 259.887 301.806 241.694 301.806 221.903C301.806 177.772 266.034 142 221.903 142C177.772 142 142 177.772 142 221.903C142 266.034 177.772 301.806 221.903 301.806C241.694 301.806 259.887 294.553 273.901 282.506L277.22 285.948V295.659L338.684 357L357 338.684L295.659 277.22ZM221.903 277.22C191.294 277.22 166.585 252.512 166.585 221.903C166.585 191.294 191.294 166.585 221.903 166.585C252.512 166.585 277.22 191.294 277.22 221.903C277.22 252.512 252.512 277.22 221.903 277.22Z" fill="#EFEFEF"/>
</svg>
